<?xml version="1.0" standalone="no"?>
<!DOCTYPE svg PUBLIC "-//W3C//DTD SVG 20010904//EN"
 "http://www.w3.org/TR/2001/REC-SVG-20010904/DTD/svg10.dtd">
<svg version="1.0" xmlns="http://www.w3.org/2000/svg"
 width="64.000000pt" height="64.000000pt" viewBox="0 0 64.000000 64.000000"
 preserveAspectRatio="xMidYMid meet">
<metadata>
Created by potrace 1.10, written by Peter Selinger 2001-2011
</metadata>
<g transform="translate(0.000000,64.000000) scale(0.100000,-0.100000)"
fill="#000000" stroke="none">
<path d="M310 575 c0 -14 4 -25 9 -25 12 0 23 29 15 41 -10 18 -24 9 -24 -16z"/>
<path d="M467 512 c-25 -27 -21 -35 8 -16 25 16 33 34 17 34 -5 0 -16 -8 -25
-18z"/>
<path d="M244 490 c-42 -27 -69 -88 -60 -135 5 -25 4 -35 -3 -30 -6 3 -12 21
-12 38 -2 27 -3 28 -6 6 -5 -32 14 -82 27 -74 6 4 22 -5 35 -19 13 -14 29 -26
35 -26 19 0 10 15 -24 37 -43 28 -55 81 -31 138 15 36 16 37 30 19 8 -10 15
-14 15 -8 0 5 -5 15 -12 22 -9 9 -3 15 25 27 20 8 37 17 37 20 0 11 -27 4 -56
-15z"/>
<path d="M340 506 c0 -3 17 -13 37 -21 28 -12 34 -18 25 -27 -7 -7 -12 -16
-12 -22 0 -6 5 -5 12 2 7 7 15 12 19 12 15 0 29 -64 23 -102 -6 -32 -15 -45
-45 -65 -40 -26 -51 -40 -25 -30 9 4 16 -1 18 -10 2 -12 8 -11 32 8 l29 23 15
-22 c16 -24 32 -29 32 -9 0 7 -14 21 -31 31 -21 13 -28 23 -24 34 4 10 8 39
10 65 4 45 1 52 -33 87 -33 34 -82 61 -82 46z"/>
<path d="M456 445 c11 -27 11 -115 0 -140 -7 -16 -7 -18 4 -8 22 20 25 124 5
148 -17 20 -17 20 -9 0z"/>
<path d="M42 328 c-7 -7 -12 -15 -12 -19 0 -13 58 -30 91 -26 l34 4 -36 1
c-44 2 -60 28 -26 42 20 8 20 9 -8 9 -17 1 -36 -4 -43 -11z"/>
<path d="M553 326 c23 -17 6 -33 -43 -39 l-35 -4 36 -1 c45 -2 99 16 99 33 0
15 -22 25 -53 25 -21 -1 -21 -2 -4 -14z"/>
<path d="M190 282 c0 -13 51 -54 58 -47 3 3 3 6 1 8 -2 1 -16 13 -31 26 -16
14 -28 20 -28 13z"/>
<path d="M158 266 c-19 -14 -24 -36 -9 -36 12 0 33 28 29 39 -2 6 -10 4 -20
-3z"/>
<path d="M307 103 c-11 -10 -8 -41 4 -49 15 -9 30 17 19 32 -6 6 -7 14 -3 17
3 4 2 7 -4 7 -5 0 -13 -3 -16 -7z"/>
</g>
</svg>
